<svg width="17" height="16" viewBox="0 0 17 16" fill="none" xmlns="http://www.w3.org/2000/svg">
    <path fill-rule="evenodd" clip-rule="evenodd" d="M17 9.80959V16H13.3563V10.2242C13.3563 8.77325 12.8293 7.78305 11.5105 7.78305C10.5037 7.78305 9.90451 8.45037 9.64092 9.0959C9.5448 9.32667 9.52006 9.64787 9.52006 9.97091V16H5.87518C5.87518 16 5.92427 6.21766 5.87518 5.20414H9.5197V6.73441C9.51231 6.74586 9.50271 6.7582 9.49575 6.76929H9.5197V6.73441C10.0039 5.99985 10.8687 4.95052 12.8042 4.95052C15.2023 4.95048 17 6.49352 17 9.80959ZM2.06249 0C0.81558 0 0 0.805563 0 1.86491C0 2.90116 0.791984 3.73117 2.01411 3.73117H2.03846C3.30951 3.73117 4.1 2.90132 4.1 1.86491C4.07604 0.805563 3.30951 0 2.06249 0ZM0.216474 16H3.85997V5.20414H0.216474V16Z" fill="white"/>
    </svg>  