<svg width="34" height="26" viewBox="0 0 34 26" fill="none" xmlns="http://www.w3.org/2000/svg">
<path fill-rule="evenodd" clip-rule="evenodd" d="M29.3377 4.80738V11.9809C29.3377 14.636 27.1488 16.7883 24.4485 16.7883H12.015L6.38496 22.2345C6.18437 22.4285 5.91812 22.5314 5.64736 22.5314C5.51045 22.5314 5.37255 22.5052 5.24122 22.451C4.85052 22.29 4.5962 21.914 4.5962 21.4975V16.7789C2.03254 16.6299 0 14.5393 0 11.9809V4.80738C0 2.15234 2.18894 0 4.88912 0H24.4486C27.1487 0 29.3377 2.15234 29.3377 4.80738ZM31.4399 12.7387V12.3689C32.8857 12.5627 34.0001 13.7809 34 15.2555V19.6041C34 21.155 32.7679 22.4224 31.2137 22.5127V25.3732C31.2137 25.6257 31.0596 25.8536 30.8227 25.9513C30.7431 25.9839 30.6595 26 30.5764 26C30.4124 26 30.251 25.9375 30.1293 25.8199L26.7164 22.5184H19.1792C17.5424 22.5184 16.2154 21.2137 16.2154 19.6041V18.8428H25.2321C28.6551 18.8428 31.4399 16.1045 31.4399 12.7387Z" fill="#202020"/>
</svg>
